<?xml version="1.0" encoding="UTF-8" standalone="no"?>
<!-- Created with Inkscape (http://www.inkscape.org/) -->

<svg
   width="130.57082mm"
   height="85.476555mm"
   viewBox="0 0 130.57082 85.476555"
   version="1.1"
   id="svg1615"
   inkscape:version="1.1.1 (3bf5ae0d25, 2021-09-20)"
   sodipodi:docname="email.svg"
   xmlns:inkscape="http://www.inkscape.org/namespaces/inkscape"
   xmlns:sodipodi="http://sodipodi.sourceforge.net/DTD/sodipodi-0.dtd"
   xmlns="http://www.w3.org/2000/svg"
   xmlns:svg="http://www.w3.org/2000/svg">
  <sodipodi:namedview
     id="namedview1617"
     pagecolor="#505050"
     bordercolor="#eeeeee"
     borderopacity="1"
     inkscape:pageshadow="0"
     inkscape:pageopacity="0"
     inkscape:pagecheckerboard="0"
     inkscape:document-units="mm"
     showgrid="false"
     inkscape:zoom="0.90583672"
     inkscape:cx="41.398189"
     inkscape:cy="120.88271"
     inkscape:window-width="1920"
     inkscape:window-height="1147"
     inkscape:window-x="1912"
     inkscape:window-y="-8"
     inkscape:window-maximized="1"
     inkscape:current-layer="g1672"
     fit-margin-top="0"
     fit-margin-left="0"
     fit-margin-right="0"
     fit-margin-bottom="0" />
  <defs
     id="defs1612" />
  <g
     inkscape:label="Layer 1"
     inkscape:groupmode="layer"
     id="layer1"
     transform="translate(-35.091505,-104.72904)">
    <g
       id="g1672"
       transform="matrix(0.26458333,0,0,0.26458333,35.091505,82.181776)">
      <path
         d="M 444.556,85.218 H 48.942 C 21.954,85.218 0,107.171 0,134.16 v 225.177 c 0,26.988 21.954,48.942 48.942,48.942 h 395.613 c 26.988,0 48.941,-21.954 48.941,-48.942 V 134.16 c 0.001,-26.989 -21.952,-48.942 -48.94,-48.942 z m 16.314,48.942 v 225.177 c 0,2.574 -0.725,4.924 -1.793,7.09 L 343.74,251.081 460.837,133.984 c 0,0.065 0.033,0.112 0.033,0.176 z M 32.628,359.336 V 134.16 c 0,-0.064 0.033,-0.11 0.033,-0.175 L 149.758,251.082 34.413,366.426 c -1.06,-2.166 -1.785,-4.515 -1.785,-7.09 z m 219.156,-62.434 c -2.692,2.691 -7.378,2.691 -10.07,0 L 62.667,117.846 h 368.172 z m -78.957,-22.75 45.818,45.819 c 7.512,7.511 17.493,11.645 28.104,11.645 10.61,0 20.592,-4.134 28.104,-11.645 l 45.82,-45.819 101.49,101.499 H 71.327 Z"
         id="path1619"
         style="fill:#ffffff;fill-opacity:1" />
      <g
         id="g1621" />
      <g
         id="g1623" />
      <g
         id="g1625" />
      <g
         id="g1627" />
      <g
         id="g1629" />
      <g
         id="g1631" />
      <g
         id="g1633" />
      <g
         id="g1635" />
      <g
         id="g1637" />
      <g
         id="g1639" />
      <g
         id="g1641" />
      <g
         id="g1643" />
      <g
         id="g1645" />
      <g
         id="g1647" />
      <g
         id="g1649" />
    </g>
  </g>
</svg>
