<?xml version="1.0" encoding="UTF-8" standalone="no"?>
<!-- Created with Inkscape (http://www.inkscape.org/) -->

<svg
   width="6.3502598mm"
   height="3.5276701mm"
   viewBox="0 0 6.3502598 3.5276701"
   version="1.1"
   id="svg215"
   inkscape:version="1.1.1 (3bf5ae0d25, 2021-09-20)"
   sodipodi:docname="lastfm.svg"
   xmlns:inkscape="http://www.inkscape.org/namespaces/inkscape"
   xmlns:sodipodi="http://sodipodi.sourceforge.net/DTD/sodipodi-0.dtd"
   xmlns="http://www.w3.org/2000/svg"
   xmlns:svg="http://www.w3.org/2000/svg">
  <sodipodi:namedview
     id="namedview217"
     pagecolor="#505050"
     bordercolor="#eeeeee"
     borderopacity="1"
     inkscape:pageshadow="0"
     inkscape:pageopacity="0"
     inkscape:pagecheckerboard="0"
     inkscape:document-units="mm"
     showgrid="false"
     inkscape:zoom="14.493388"
     inkscape:cx="4.1743173"
     inkscape:cy="8.7971149"
     inkscape:window-width="1920"
     inkscape:window-height="1147"
     inkscape:window-x="1912"
     inkscape:window-y="-8"
     inkscape:window-maximized="1"
     inkscape:current-layer="layer1"
     fit-margin-top="0"
     fit-margin-left="0"
     fit-margin-right="0"
     fit-margin-bottom="0" />
  <defs
     id="defs212" />
  <g
     inkscape:label="Layer 1"
     inkscape:groupmode="layer"
     id="layer1"
     transform="translate(-113.72473,-140.33353)">
    <path
       d="m 116.52508,143.47544 -0.23283,-0.63288 c 0,0 -0.37836,0.42201 -0.94536,0.42201 -0.50192,0 -0.85831,-0.43657 -0.85831,-1.1348 0,-0.89456 0.45085,-1.2147 0.89482,-1.2147 0.64003,0 0.84349,0.4146 1.01838,0.94562 l 0.23284,0.7276 c 0.23256,0.70565 0.66886,1.27291 1.92722,1.27291 0.90197,0 1.51315,-0.27622 1.51315,-1.00356 0,-0.58923 -0.33469,-0.89456 -0.96017,-1.04034 l -0.46567,-0.10187 c -0.31988,-0.0728 -0.41433,-0.20373 -0.41433,-0.42174 0,-0.24739 0.19632,-0.39291 0.51646,-0.39291 0.34899,0 0.53817,0.13097 0.56727,0.44371 l 0.72734,-0.0873 c -0.0582,-0.65458 -0.50906,-0.92366 -1.25122,-0.92366 -0.65457,0 -1.2946,0.24739 -1.2946,1.04008 0,0.49477 0.23998,0.80751 0.84349,0.95303 l 0.49451,0.11615 c 0.37094,0.0873 0.4945,0.23998 0.4945,0.45112 0,0.26908 -0.26167,0.37835 -0.75618,0.37835 -0.73448,0 -1.04034,-0.3855 -1.2147,-0.91652 l -0.23998,-0.72734 c -0.30559,-0.94562 -0.79295,-1.29487 -1.76027,-1.29487 -1.06918,-2.6e-4 -1.63671,0.67628 -1.63671,1.82536 0,1.1057 0.56753,1.70207 1.58565,1.70207 0.82206,2.6e-4 1.2147,-0.3855 1.2147,-0.3855 z"
       id="path219"
       style="fill:#ffffff;fill-opacity:1;stroke-width:0.264583" />
  </g>
</svg>
